<svg width="32" height="32" viewBox="0 0 32 32" fill="none" xmlns="http://www.w3.org/2000/svg">
<g clip-path="url(#clip0_5_2)">
<rect width="32" height="32" rx="4" fill="#01326A"/>
<path d="M22.9599 11.8L15.8049 18.955C15.0924 19.6675 12.9774 19.9975 12.5049 19.525C12.0324 19.0525 12.3549 16.9375 13.0674 16.225L20.2299 9.06252C20.4066 8.86981 20.6204 8.71491 20.8586 8.60713C21.0967 8.49936 21.3543 8.44093 21.6156 8.43543C21.8769 8.42993 22.1367 8.47743 22.3792 8.57509C22.6217 8.67275 22.8419 8.81855 23.0265 9.00365C23.211 9.18875 23.3562 9.40932 23.4532 9.65207C23.5502 9.89482 23.5971 10.1547 23.5908 10.416C23.5846 10.6774 23.5254 10.9348 23.4171 11.1726C23.3086 11.4105 23.1531 11.6239 22.9599 11.8Z" stroke="white" stroke-linecap="round" stroke-linejoin="round"/>
<path d="M15.25 10H11.5C10.7043 10 9.94133 10.3161 9.37872 10.8787C8.81612 11.4413 8.5 12.2043 8.5 13V20.5C8.5 21.2957 8.81612 22.0587 9.37872 22.6213C9.94133 23.1839 10.7043 23.5 11.5 23.5H19.75C21.4075 23.5 22 22.15 22 20.5V16.75" stroke="white" stroke-linecap="round" stroke-linejoin="round"/>
</g>
<defs>
<clipPath id="clip0_5_2">
<rect width="32" height="32" fill="white"/>
</clipPath>
</defs>
</svg>
