<svg width="604" height="604" viewBox="0 0 604 604" fill="none" xmlns="http://www.w3.org/2000/svg">
<rect width="600" height="600" transform="translate(3.1196 0.88461) rotate(0.213424)" fill="white"/>
<path d="M451.115 374.395C418.463 331.304 353.218 229.343 353.453 166.22C294.986 132.408 329.436 112.224 341.143 115.393C327.179 88.7783 367.932 54.5553 381.029 103.823C420.091 103.968 423.146 122.729 401.141 157.803C436.824 225.905 448.47 245.479 464.048 258.037" stroke="black"/>
<path d="M373.247 145.021L373.173 145.038L373.108 145.077C366.367 149.026 362.179 148.591 359.546 146.625C356.845 144.608 355.574 140.842 355.008 137.68C354.472 134.684 355.598 131.645 357.927 129.146C360.257 126.647 363.77 124.716 367.921 123.973C372.072 123.231 376.037 123.824 379.088 125.361C382.139 126.897 384.249 129.358 384.785 132.353C384.847 132.701 384.909 133.036 384.969 133.36C385.211 134.672 385.418 135.794 385.474 136.806C385.542 138.047 385.375 139.05 384.793 139.94C384.203 140.84 383.145 141.69 381.296 142.53C379.448 143.369 376.853 144.178 373.247 145.021Z" fill="#1CB7FF" stroke="black"/>
<path d="M366.241 95.127C367.031 99.6267 364.673 103.62 361.208 104.228C357.743 104.836 354.166 101.885 353.376 97.3858C352.586 92.8861 354.944 88.893 358.409 88.2847C361.874 87.6764 365.451 90.6274 366.241 95.127Z" fill="#1CB7FF" stroke="black"/>
<path d="M343.154 127.235C346.455 130.393 346.919 135.007 344.487 137.549C342.055 140.091 337.425 139.831 334.124 136.673C330.823 133.514 330.359 128.9 332.791 126.358C335.223 123.816 339.853 124.076 343.154 127.235Z" fill="#1CB7FF" stroke="black"/>
<path d="M401.659 126.615C398.973 130.31 394.463 131.391 391.617 129.322C388.772 127.254 388.406 122.631 391.092 118.936C393.778 115.24 398.288 114.16 401.134 116.228C403.979 118.296 404.345 122.919 401.659 126.615Z" fill="#1CB7FF" stroke="black"/>
<path d="M333.074 198.458C332.931 210.279 335.864 238.412 348.74 256.369" stroke="black" stroke-linecap="round"/>
<path d="M322.121 196.461C320.656 201.794 318.653 214.873 322.354 224.524" stroke="black" stroke-linecap="round"/>
<path d="M236.203 354.131C233.72 366.586 203.042 370.968 167.68 363.92C132.319 356.871 105.666 341.06 108.148 328.605C110.631 316.15 141.31 311.767 176.671 318.816C212.032 325.865 238.686 341.676 236.203 354.131Z" fill="#1CB7FF"/>
<path d="M236.203 354.131C233.72 366.586 203.042 370.968 167.68 363.92C132.319 356.871 105.666 341.06 108.148 328.605M236.203 354.131C238.686 341.676 212.032 325.865 176.671 318.816C141.31 311.767 110.631 316.15 108.148 328.605M236.203 354.131L227.002 404.74M108.148 328.605L100.162 377.235" stroke="black"/>
<path d="M166.254 350.533C161.519 346.068 156.778 337.665 175.695 339.769C178.22 337.316 177.269 337.975 179.794 335.522" stroke="black" stroke-linecap="round"/>
<circle cx="182.136" cy="331.788" r="1.15752" transform="rotate(-124.709 182.136 331.788)" fill="black"/>
<path d="M396.408 457.65C393.383 472.827 355.999 478.168 312.909 469.578C269.819 460.989 237.341 441.722 240.366 426.545C243.392 411.368 280.775 406.028 323.865 414.617C366.955 423.207 399.433 442.473 396.408 457.65Z" fill="#1CB7FF"/>
<path d="M396.408 457.65C393.383 472.827 355.999 478.168 312.909 469.578C269.819 460.989 237.341 441.722 240.366 426.545M396.408 457.65C399.433 442.473 366.955 423.207 323.865 414.617C280.775 406.028 243.392 411.368 240.366 426.545M396.408 457.65L385.195 519.32M240.366 426.545L230.635 485.804" stroke="black"/>
<path d="M311.171 453.265C305.401 447.825 299.624 437.585 322.676 440.149C325.753 437.16 324.593 437.963 327.67 434.974" stroke="black" stroke-linecap="round"/>
<circle cx="330.524" cy="430.423" r="1.4105" transform="rotate(-124.709 330.524 430.423)" fill="black"/>
<path d="M295.104 267.777C293.258 277.037 270.451 280.294 244.163 275.054C217.875 269.814 198.06 258.06 199.906 248.801C201.752 239.542 224.559 236.284 250.847 241.524C277.135 246.764 296.949 258.518 295.104 267.777Z" fill="#1CB7FF"/>
<path d="M295.104 267.777C293.258 277.037 270.451 280.294 244.163 275.054C217.875 269.814 198.06 258.06 199.906 248.801M295.104 267.777C296.949 258.518 277.135 246.764 250.847 241.524C224.559 236.284 201.752 239.542 199.906 248.801M295.104 267.777L288.263 305.401M199.906 248.801L193.969 284.953" stroke="black"/>
<path d="M243.103 265.102C239.583 261.783 236.059 255.537 250.121 257.101C251.998 255.277 251.291 255.767 253.168 253.944" stroke="black" stroke-linecap="round"/>
<circle cx="254.909" cy="251.167" r="0.860444" transform="rotate(-124.709 254.909 251.167)" fill="black"/>
</svg>
