<svg width="368" height="443" viewBox="0 0 368 443" fill="none" xmlns="http://www.w3.org/2000/svg">
<path d="M354.115 297.395C321.463 254.304 256.218 152.343 256.453 89.2195C197.986 55.4082 232.436 35.2241 244.143 38.3927C230.179 11.7783 270.932 -22.4447 284.029 26.8226C323.091 26.9681 326.146 45.7294 304.141 80.8034C339.824 148.905 351.47 168.479 367.048 181.037" stroke="black"/>
<path d="M276.247 68.021L276.173 68.0382L276.108 68.0765C269.367 72.0257 265.179 71.5914 262.546 69.6252C259.845 67.6076 258.574 63.8416 258.008 60.6797C257.472 57.6839 258.598 54.6448 260.927 52.1461C263.257 49.6471 266.77 47.7158 270.921 46.9732C275.072 46.2307 279.037 46.8244 282.088 48.3609C285.139 49.8973 287.249 52.3576 287.785 55.3534C287.847 55.7012 287.909 56.0364 287.969 56.36C288.211 57.6718 288.418 58.7943 288.474 59.8062C288.542 61.0475 288.375 62.0498 287.793 62.9397C287.203 63.8397 286.145 64.69 284.296 65.5297C282.448 66.369 279.853 67.1781 276.247 68.021Z" fill="#01326A" stroke="black"/>
<path d="M269.241 18.127C270.031 22.6267 267.673 26.6198 264.208 27.2281C260.743 27.8364 257.166 24.8854 256.376 20.3858C255.586 15.8861 257.944 11.893 261.409 11.2847C264.874 10.6764 268.451 13.6274 269.241 18.127Z" fill="#01326A" stroke="black"/>
<path d="M246.154 50.2347C249.455 53.393 249.919 58.0073 247.487 60.5491C245.055 63.0909 240.425 62.8309 237.124 59.6725C233.823 56.5142 233.359 51.8999 235.791 49.3581C238.223 46.8163 242.853 47.0763 246.154 50.2347Z" fill="#01326A" stroke="black"/>
<path d="M304.659 49.6147C301.973 53.3104 297.463 54.3906 294.617 52.3224C291.772 50.2543 291.406 45.6312 294.092 41.9356C296.778 38.2399 301.288 37.1597 304.134 39.2279C306.979 41.296 307.345 45.9191 304.659 49.6147Z" fill="#01326A" stroke="black"/>
<path d="M236.074 121.458C235.931 133.279 238.864 161.412 251.74 179.369" stroke="black" stroke-linecap="round"/>
<path d="M225.121 119.461C223.656 124.794 221.653 137.873 225.354 147.524" stroke="black" stroke-linecap="round"/>
<path d="M139.203 277.131C136.72 289.586 106.042 293.968 70.6803 286.92C35.3189 279.871 8.66556 264.06 11.1483 251.605C13.631 239.15 44.3097 234.767 79.6711 241.816C115.032 248.865 141.686 264.676 139.203 277.131Z" fill="#01326A"/>
<path d="M139.203 277.131C136.72 289.586 106.042 293.968 70.6803 286.92C35.3189 279.871 8.66556 264.06 11.1483 251.605M139.203 277.131C141.686 264.676 115.032 248.865 79.6711 241.816C44.3097 234.767 13.631 239.15 11.1483 251.605M139.203 277.131L130.002 327.74M11.1483 251.605L3.16199 300.235" stroke="black"/>
<path d="M69.2542 273.533C64.519 269.068 59.778 260.665 78.6954 262.769C81.2205 260.316 80.2689 260.975 82.794 258.522" stroke="black" stroke-linecap="round"/>
<circle cx="85.1358" cy="254.788" r="1.15752" transform="rotate(-124.709 85.1358 254.788)" fill="black"/>
<path d="M299.408 380.65C296.383 395.827 258.999 401.168 215.909 392.578C172.819 383.989 140.341 364.722 143.366 349.545C146.392 334.368 183.775 329.028 226.865 337.617C269.955 346.207 302.433 365.473 299.408 380.65Z" fill="#01326A"/>
<path d="M299.408 380.65C296.383 395.827 258.999 401.168 215.909 392.578C172.819 383.989 140.341 364.722 143.366 349.545M299.408 380.65C302.433 365.473 269.955 346.207 226.865 337.617C183.775 329.028 146.392 334.368 143.366 349.545M299.408 380.65L288.195 442.32M143.366 349.545L133.635 408.804" stroke="black"/>
<path d="M214.171 376.265C208.401 370.825 202.624 360.585 225.676 363.149C228.753 360.16 227.593 360.963 230.67 357.974" stroke="black" stroke-linecap="round"/>
<circle cx="233.524" cy="353.423" r="1.4105" transform="rotate(-124.709 233.524 353.423)" fill="black"/>
<path d="M198.104 190.777C196.258 200.037 173.451 203.294 147.163 198.054C120.875 192.814 101.06 181.06 102.906 171.801C104.752 162.542 127.559 159.284 153.847 164.524C180.135 169.764 199.949 181.518 198.104 190.777Z" fill="#01326A"/>
<path d="M198.104 190.777C196.258 200.037 173.451 203.294 147.163 198.054C120.875 192.814 101.06 181.06 102.906 171.801M198.104 190.777C199.949 181.518 180.135 169.764 153.847 164.524C127.559 159.284 104.752 162.542 102.906 171.801M198.104 190.777L191.263 228.401M102.906 171.801L96.9689 207.953" stroke="black"/>
<path d="M146.103 188.102C142.583 184.783 139.059 178.537 153.121 180.101C154.998 178.277 154.291 178.767 156.168 176.944" stroke="black" stroke-linecap="round"/>
<circle cx="157.909" cy="174.167" r="0.860444" transform="rotate(-124.709 157.909 174.167)" fill="black"/>
</svg>
